<?xml version="1.0" encoding="UTF-8" standalone="no"?>
<!-- Created with Inkscape (http://www.inkscape.org/) -->

<svg
  width="210mm"
  height="297mm"
  viewBox="0 0 210 297"
  version="1.1"
  id="svg1"
  xml:space="preserve"
  inkscape:version="1.4 (86a8ad7, 2024-10-11)"
  sodipodi:docname="drawing.svg"
  xmlns:inkscape="http://www.inkscape.org/namespaces/inkscape"
  xmlns:sodipodi="http://sodipodi.sourceforge.net/DTD/sodipodi-0.dtd"
  xmlns="http://www.w3.org/2000/svg"
  xmlns:svg="http://www.w3.org/2000/svg"><sodipodi:namedview
     id="namedview1"
     pagecolor="#ffffff"
     bordercolor="#eeeeee"
     borderopacity="1"
     inkscape:showpageshadow="0"
     inkscape:pageopacity="0"
     inkscape:pagecheckerboard="0"
     inkscape:deskcolor="#505050"
     inkscape:document-units="mm"
     showguides="true"
     inkscape:zoom="0.74208053"
     inkscape:cx="480.40608"
     inkscape:cy="528.91834"
     inkscape:window-width="1920"
     inkscape:window-height="1051"
     inkscape:window-x="-9"
     inkscape:window-y="-9"
     inkscape:window-maximized="1"
     inkscape:current-layer="layer1" /><defs
     id="defs1" /><g
     inkscape:label="Layer 1"
     inkscape:groupmode="layer"
     id="layer1"><rect
       style="display:inline;fill:#4d4d4d;stroke:#420d09;stroke-width:0.125;stroke-linecap:round;stroke-linejoin:round;stroke-miterlimit:14.2;paint-order:fill markers stroke"
       id="rect3"
       width="27.045502"
       height="0"
       x="88.422562"
       y="135.63715" /><text
       xml:space="preserve"
       style="font-style:normal;font-variant:normal;font-weight:bold;font-stretch:normal;font-size:109.533px;font-family:Dubai;-inkscape-font-specification:'Dubai, Bold';font-variant-ligatures:normal;font-variant-caps:normal;font-variant-numeric:normal;font-variant-east-asian:normal;text-align:start;writing-mode:lr-tb;direction:ltr;text-anchor:start;opacity:0.690625;fill:#000000;fill-opacity:1;stroke:#b00000;stroke-width:0.125;stroke-linecap:round;stroke-linejoin:round;stroke-miterlimit:14.2;stroke-opacity:0;paint-order:fill markers stroke"
       x="37.793518"
       y="160.26591"
       id="text32"><tspan
         sodipodi:role="line"
         id="tspan32"
         style="stroke-width:0.125" /></text><g
       id="g45"
       transform="matrix(1.716203,0,0,1.716203,-49.175832,-106.79808)"><path
         d="M 112.91112,142.25162 H 76.623002 V 92.081697 h 80.097988 v 5.631236 H 89.493996 v 12.731827 h 21.732434 v 9.70379 H 89.493996 v 12.39928 h 23.417124 z"
         id="text30"
         style="font-weight:bold;font-size:69.0047px;font-family:Sans;-inkscape-font-specification:'Sans Bold';opacity:1;fill:#000000;fill-opacity:1;stroke:#b00000;stroke-width:1.01877;stroke-linecap:round;stroke-linejoin:round;stroke-miterlimit:14.2;stroke-opacity:0;paint-order:fill markers stroke"
         aria-label="EB"
         sodipodi:nodetypes="ccccccccccccc"
         transform="scale(0.80768059,1.2381132)" /><path
         d="m 129.27466,163.48019 c 0,1.87663 -0.39914,3.55342 -1.19741,5.03039 -0.78013,1.47698 -1.8596,2.702 -3.23843,3.67507 -1.59654,1.14683 -3.35636,1.9635 -5.27947,2.45004 -1.90496,0.48653 -4.32698,0.7298 -7.26607,0.7298 H 94.60434 v -38.80967 h 15.72955 c 3.26565,0 5.65139,0.10425 7.15721,0.31276 1.52397,0.20853 3.02981,0.669 4.51749,1.38141 1.54211,0.74718 2.68508,1.75499 3.42893,3.02346 0.76199,1.25109 1.14298,2.68462 1.14298,4.30061 0,1.87662 -0.51706,3.53604 -1.55119,4.97826 -1.03412,1.42485 -2.49459,2.53693 -4.38141,3.33623 v 0.20851 c 2.6488,0.50391 4.74427,1.54647 6.28638,3.12771 1.56025,1.58123 2.34038,3.66637 2.34038,6.25542 z M 115.8855,147.52886 c 0,-0.64291 -0.17235,-1.28583 -0.51706,-1.92875 -0.32657,-0.64292 -0.9162,-1.12076 -1.7689,-1.43353 -0.76199,-0.27802 -1.71447,-0.42572 -2.85744,-0.44309 -1.12483,-0.0347 -2.71231,-0.0521 -4.76241,-0.0521 h -6.415166 v 8.21023 h 7.068296 c 1.65097,0 3.05701,-0.0261 4.21813,-0.0781 1.16112,-0.0521 2.07731,-0.22588 2.74859,-0.52128 0.94341,-0.39966 1.56026,-0.91225 1.85054,-1.53779 0.29028,-0.64292 0.43542,-1.38141 0.43542,-2.21547 z m 2.55808,15.79494 c 0,-1.23371 -0.25399,-2.18071 -0.76198,-2.841 -0.48985,-0.67767 -1.33347,-1.18158 -2.53087,-1.51173 -0.81641,-0.22589 -1.94126,-0.34752 -3.37451,-0.36489 -1.43326,-0.0175 -2.93001,-0.0261 -4.49027,-0.0261 h -7.721426 v 9.66984 h 6.197466 c 2.93909,0 5.04362,-0.008 6.31359,-0.0261 1.26997,-0.0174 2.44017,-0.24326 3.51058,-0.67767 1.08855,-0.4344 1.83239,-1.00782 2.23152,-1.72024 0.41727,-0.7298 0.62591,-1.56385 0.62591,-2.50217 z"
         style="font-weight:bold;font-size:69.0047px;font-family:Sans;-inkscape-font-specification:'Sans Bold';opacity:1;fill:#000000;fill-opacity:1;stroke:#b00000;stroke-width:0.805275;stroke-linecap:round;stroke-linejoin:round;stroke-miterlimit:14.2;stroke-opacity:0;paint-order:fill markers stroke"
         id="path1"
         sodipodi:nodetypes="scccsccscccsccccsscccsccscccssccccsccsccccc" /></g></g></svg>